<svg xmlns="http://www.w3.org/2000/svg" width="256" height="256" xml:space="preserve"><g><g style="stroke:none;stroke-width:0;stroke-dasharray:none;stroke-linecap:butt;stroke-linejoin:miter;stroke-miterlimit:10;fill:none;fill-rule:nonzero;opacity:1" transform="translate(1.964 1.964) scale(2.8008)"><linearGradient id="a" gradientUnits="userSpaceOnUse" gradientTransform="matrix(1 0 0 -1 0 92)" x1="7.553" y1="9.553" x2="82.447" y2="84.448"><stop offset="0%" style="stop-color:#ffd600;stop-opacity:1"/><stop offset="50%" style="stop-color:#ff0100;stop-opacity:1"/><stop offset="100%" style="stop-color:#d800b9;stop-opacity:1"/></linearGradient><path d="M89.729 26.447c-.219-4.79-.98-8.061-2.092-10.923a22.062 22.062 0 0 0-5.19-7.971 22.058 22.058 0 0 0-7.971-5.192C71.614 1.25 68.343.49 63.553.272 58.754.053 57.221 0 45 0S31.246.053 26.447.271c-4.79.219-8.061.98-10.923 2.092a22.062 22.062 0 0 0-7.971 5.19 22.054 22.054 0 0 0-5.192 7.97C1.25 18.386.49 21.657.272 26.446.052 31.246 0 32.779 0 45c0 12.222.052 13.755.272 18.554.218 4.789.979 8.061 2.092 10.923a22.058 22.058 0 0 0 5.19 7.97 22.04 22.04 0 0 0 7.971 5.19c2.862 1.113 6.133 1.873 10.923 2.092 4.799.219 6.332.271 18.553.271s13.754-.051 18.553-.271c4.79-.219 8.061-.979 10.923-2.092a23.003 23.003 0 0 0 13.16-13.16c1.113-2.863 1.873-6.134 2.092-10.923.219-4.8.271-6.333.271-18.554 0-12.221-.052-13.754-.271-18.553zm-8.1 36.738c-.2 4.388-.933 6.77-1.549 8.356a14.902 14.902 0 0 1-8.54 8.54c-1.585.616-3.968 1.349-8.356 1.549-4.744.217-6.168.262-18.184.262-12.017 0-13.44-.045-18.184-.262-4.387-.2-6.77-.933-8.356-1.549a13.954 13.954 0 0 1-5.174-3.367 13.946 13.946 0 0 1-3.367-5.174c-.616-1.585-1.349-3.968-1.549-8.356-.216-4.745-.262-6.168-.262-18.184 0-12.016.046-13.439.262-18.184.201-4.388.933-6.77 1.549-8.356a13.95 13.95 0 0 1 3.367-5.175 13.935 13.935 0 0 1 5.175-3.366c1.585-.617 3.968-1.349 8.356-1.55 4.744-.215 6.167-.261 18.183-.261h-.001c12.016 0 13.439.046 18.184.263 4.388.2 6.77.933 8.356 1.549a13.964 13.964 0 0 1 5.174 3.366 13.935 13.935 0 0 1 3.366 5.175c.617 1.585 1.35 3.968 1.55 8.356.216 4.745.262 6.168.262 18.184 0 12.016-.045 13.438-.262 18.184z" style="stroke:none;stroke-width:1;stroke-dasharray:none;stroke-linecap:butt;stroke-linejoin:miter;stroke-miterlimit:10;fill:url(#a);fill-rule:nonzero;opacity:1"/><linearGradient id="b" gradientUnits="userSpaceOnUse" gradientTransform="matrix(1 0 0 -1 0 92)" x1="28.66" y1="30.66" x2="61.339" y2="63.34"><stop offset="0%" style="stop-color:#ff6400;stop-opacity:1"/><stop offset="50%" style="stop-color:#ff0100;stop-opacity:1"/><stop offset="100%" style="stop-color:#fd0056;stop-opacity:1"/></linearGradient><path d="M44.999 21.892c-12.762 0-23.108 10.346-23.108 23.108s10.346 23.108 23.108 23.108c12.763 0 23.108-10.346 23.108-23.108S57.762 21.892 44.999 21.892zm0 38.108C36.716 59.999 30 53.284 30 45c0-8.284 6.715-15 15-15 8.284.001 15 6.716 15 15 0 8.284-6.716 15-15.001 15z" style="stroke:none;stroke-width:1;stroke-dasharray:none;stroke-linecap:butt;stroke-linejoin:miter;stroke-miterlimit:10;fill:url(#b);fill-rule:nonzero;opacity:1"/><linearGradient id="c" gradientUnits="userSpaceOnUse" gradientTransform="matrix(1 0 0 -1 0 92)" x1="65.202" y1="67.202" x2="72.839" y2="74.839"><stop offset="0%" style="stop-color:#f30072;stop-opacity:1"/><stop offset="100%" style="stop-color:#e50097;stop-opacity:1"/></linearGradient><path d="M74.421 20.979a5.4 5.4 0 1 1-10.8 0 5.4 5.4 0 0 1 10.8 0z" style="stroke:none;stroke-width:1;stroke-dasharray:none;stroke-linecap:butt;stroke-linejoin:miter;stroke-miterlimit:10;fill:url(#c);fill-rule:nonzero;opacity:1"/></g></g></svg>