<svg xmlns="http://www.w3.org/2000/svg" width="256" height="256" xml:space="preserve"><g><g style="stroke:none;stroke-width:0;stroke-dasharray:none;stroke-linecap:butt;stroke-linejoin:miter;stroke-miterlimit:10;fill:none;fill-rule:nonzero;opacity:1"><path d="M82.244 70.199c12.105-17.837 9.852-41.744-5.443-57.04-17.545-17.545-46.096-17.546-63.642 0-17.546 17.546-17.546 46.096 0 63.642A44.935 44.935 0 0 0 44.989 90a44.812 44.812 0 0 0 25.21-7.755l16.803 6.037a1 1 0 0 0 1.279-1.279l-6.037-16.804z" style="stroke:none;stroke-width:1;stroke-dasharray:none;stroke-linecap:butt;stroke-linejoin:miter;stroke-miterlimit:10;fill:#edd545;fill-rule:nonzero;opacity:1" transform="translate(1.964 1.964) scale(2.8008)"/><path d="M53.441 58.736a2 2 0 0 1-2-2V39.469l-4.817 6.699a2.001 2.001 0 0 1-3.248 0l-4.818-6.699v17.268a2 2 0 0 1-4 0V33.263a2.001 2.001 0 0 1 3.624-1.168L45 41.575l6.817-9.479c.509-.705 1.414-1 2.237-.736a2.002 2.002 0 0 1 1.387 1.904v23.473a2 2 0 0 1-2 1.999zM23.974 58.736h-7.66a2 2 0 0 1 0-4h7.66a2.079 2.079 0 0 0 2.077-2.076v-3.583A2.079 2.079 0 0 0 23.974 47h-4.265a6.084 6.084 0 0 1-6.077-6.077V37.34a6.084 6.084 0 0 1 6.077-6.077h5.498a2 2 0 0 1 0 4h-5.498a2.079 2.079 0 0 0-2.077 2.077v3.583c0 1.146.932 2.077 2.077 2.077h4.265a6.084 6.084 0 0 1 6.077 6.077v3.583a6.083 6.083 0 0 1-6.077 6.076zM70.291 58.736h-7.659a2 2 0 0 1 0-4h7.659a2.079 2.079 0 0 0 2.077-2.076v-3.583A2.079 2.079 0 0 0 70.291 47h-4.265a6.084 6.084 0 0 1-6.077-6.077V37.34a6.084 6.084 0 0 1 6.077-6.077h5.498a2 2 0 0 1 0 4h-5.498a2.079 2.079 0 0 0-2.077 2.077v3.583c0 1.146.932 2.077 2.077 2.077h4.265a6.084 6.084 0 0 1 6.077 6.077v3.583a6.083 6.083 0 0 1-6.077 6.076z" style="stroke:none;stroke-width:1;stroke-dasharray:none;stroke-linecap:butt;stroke-linejoin:miter;stroke-miterlimit:10;fill:#3a3a3a;fill-rule:nonzero;opacity:1" transform="translate(1.964 1.964) scale(2.8008)"/></g></g></svg>