<svg xmlns="http://www.w3.org/2000/svg" width="256" height="256" xml:space="preserve"><g><g style="stroke:none;stroke-width:0;stroke-dasharray:none;stroke-linecap:butt;stroke-linejoin:miter;stroke-miterlimit:10;fill:none;fill-rule:nonzero;opacity:1"><path d="M45 90C20.187 90 0 69.813 0 45S20.187 0 45 0s45 20.187 45 45-20.187 45-45 45z" style="stroke:none;stroke-width:1;stroke-dasharray:none;stroke-linecap:butt;stroke-linejoin:miter;stroke-miterlimit:10;fill:#0e9b0a;fill-rule:nonzero;opacity:1" transform="translate(1.964 1.964) scale(2.8008)"/><path d="m61.884 68.284 5.296-2.671c2.519-1.271 2.821-4.747.559-6.433l-7.994-5.959a3.796 3.796 0 0 0-4.137-.261l-2.322 1.312c-1.114.63-2.478.671-3.607.07-6.1-3.247-10.773-7.921-14.021-14.021-.601-1.129-.56-2.493.07-3.607l1.312-2.322a3.798 3.798 0 0 0-.261-4.137l-5.959-7.994c-1.686-2.262-5.163-1.96-6.433.559l-2.671 5.296c-1.248 2.475-1.317 5.392-.146 7.904 6.872 14.734 17.676 25.538 32.41 32.41 2.512 1.172 5.429 1.103 7.904-.146z" style="stroke:none;stroke-width:1;stroke-dasharray:none;stroke-linecap:butt;stroke-linejoin:miter;stroke-miterlimit:10;fill:#fff;fill-rule:nonzero;opacity:1" transform="translate(1.964 1.964) scale(2.8008)"/></g></g></svg>